<?xml version="1.0" encoding="UTF-8" standalone="no" ?>
<!DOCTYPE svg PUBLIC "-//W3C//DTD SVG 1.1//EN" "http://www.w3.org/Graphics/SVG/1.1/DTD/svg11.dtd">
<svg xmlns="http://www.w3.org/2000/svg" xmlns:xlink="http://www.w3.org/1999/xlink" version="1.1" width="640" height="480" viewBox="0 0 640 480" xml:space="preserve">
<desc>Created with Fabric.js 3.6.6</desc>
<defs>
</defs>
<g transform="matrix(1.44 0 0 1.44 318.42 239.82)"  >
<g style=""   >
		<g transform="matrix(1 0 0 1 0 0)"  >
<path style="stroke: none; stroke-width: 1; stroke-dasharray: none; stroke-linecap: butt; stroke-dashoffset: 0; stroke-linejoin: miter; stroke-miterlimit: 4; fill: rgb(6,53,10); fill-rule: nonzero; opacity: 1;"  transform=" translate(-220, -91.5)" d="M 0 0 C 145.2 0 290.4 0 440 0 C 440 60.39 440 120.78 440 183 C 294.8 183 149.6 183 0 183 C 0 122.61 0 62.22 0 0 Z" stroke-linecap="round" />
</g>
		<g transform="matrix(1 0 0 1 0 0)"  >
<path style="stroke: none; stroke-width: 1; stroke-dasharray: none; stroke-linecap: butt; stroke-dashoffset: 0; stroke-linejoin: miter; stroke-miterlimit: 4; fill: rgb(251,252,251); fill-rule: nonzero; opacity: 1;"  transform=" translate(-220, -91.5)" d="M 0 0 C 145.2 0 290.4 0 440 0 C 440 60.39 440 120.78 440 183 C 294.8 183 149.6 183 0 183 C 0 122.61 0 62.22 0 0 Z M 22 22 C 22 67.54 22 113.08 22 160 C 152.35 160 282.7 160 417 160 C 417 114.46 417 68.92 417 22 C 286.65 22 156.3 22 22 22 Z" stroke-linecap="round" />
</g>
		<g transform="matrix(1 0 0 1 -163 -0.5)"  >
<path style="stroke: none; stroke-width: 1; stroke-dasharray: none; stroke-linecap: butt; stroke-dashoffset: 0; stroke-linejoin: miter; stroke-miterlimit: 4; fill: rgb(247,248,247); fill-rule: nonzero; opacity: 1;"  transform=" translate(-28, -32)" d="M 0 0 C 4.95 0 9.9 0 15 0 C 17.0048279 3.95595506 19.00405061 7.91456889 21 11.875 C 21.57234375 13.00292969 22.1446875 14.13085938 22.734375 15.29296875 C 23.27578125 16.36933594 23.8171875 17.44570312 24.375 18.5546875 C 25.12910156 20.04718018 25.12910156 20.04718018 25.8984375 21.56982422 C 27 24 27 24 27 26 C 29.78278515 23.56015115 31.13396297 21.00885533 32.69921875 17.67578125 C 33.18583984 16.64775391 33.67246094 15.61972656 34.17382812 14.56054688 C 34.67333984 13.48869141 35.17285156 12.41683594 35.6875 11.3125 C 36.19861328 10.22904297 36.70972656 9.14558594 37.23632812 8.02929688 C 38.49663289 5.3555662 39.74907288 2.6781309 41 0 C 45.95 0 50.9 0 56 0 C 56 21.12 56 42.24 56 64 C 50.72 64 45.44 64 40 64 C 39.505 51.625 39.505 51.625 39 39 C 35.7 45.6 32.4 52.2 29 59 C 28.34 59 27.68 59 27 59 C 24.03 53.06 21.06 47.12 18 41 C 17.67 48.59 17.34 56.18 17 64 C 11.39 64 5.78 64 0 64 C 0 42.88 0 21.76 0 0 Z" stroke-linecap="round" />
</g>
		<g transform="matrix(1 0 0 1 34.26 -0.5)"  >
<path style="stroke: none; stroke-width: 1; stroke-dasharray: none; stroke-linecap: butt; stroke-dashoffset: 0; stroke-linejoin: miter; stroke-miterlimit: 4; fill: rgb(248,249,248); fill-rule: nonzero; opacity: 1;"  transform=" translate(-20.26, -32)" d="M 0 0 C 31 0 31 0 37 4 C 41.25442262 9.47302326 40.47770733 15.29598058 40.4375 21.9375 C 40.4674707 23.68836914 40.4674707 23.68836914 40.49804688 25.47460938 C 40.49185621 36.33921928 40.49185621 36.33921928 36 41 C 31.96227975 44.32641202 28.21249485 44.37357026 23.1875 44.1875 C 20.815625 44.125625 18.44375 44.06375 16 44 C 16 50.6 16 57.2 16 64 C 10.72 64 5.44 64 0 64 C 0 42.88 0 21.76 0 0 Z" stroke-linecap="round" />
</g>
		<g transform="matrix(1 0 0 1 80.99 7.45)"  >
<path style="stroke: none; stroke-width: 1; stroke-dasharray: none; stroke-linecap: butt; stroke-dashoffset: 0; stroke-linejoin: miter; stroke-miterlimit: 4; fill: rgb(250,250,250); fill-rule: nonzero; opacity: 1;"  transform=" translate(-9, -24.61)" d="M 0 0 C 0.67055923 -0.00478363 1.34111847 -0.00956726 2.03199768 -0.01449585 C 3.44656731 -0.01788956 4.86121592 -0.00872347 6.27563477 0.01220703 C 8.43229627 0.03894954 10.58373583 0.01247524 12.74023438 -0.01953125 C 14.118501 -0.01622622 15.49676438 -0.00981804 16.875 0 C 18.1220874 0.00563965 19.3691748 0.0112793 20.65405273 0.01708984 C 25.02203689 0.86069876 26.455238 2.03185362 29.00390625 5.6640625 C 29.4911739 8.66344467 29.68444075 11.08030516 29.6328125 14.0703125 C 29.63522446 14.87263306 29.63763641 15.67495361 29.64012146 16.50158691 C 29.63914487 18.19267739 29.62579583 19.88380057 29.60083008 21.57470703 C 29.56650834 24.15638323 29.58018093 26.7346359 29.59960938 29.31640625 C 29.59271054 30.96355617 29.5830378 32.61069729 29.5703125 34.2578125 C 29.57527237 35.02565063 29.58023224 35.79348877 29.58534241 36.58459473 C 29.47662255 41.55673924 28.57462559 44.18303876 25.00390625 47.6640625 C 20.796553 49.76773912 15.36604541 48.97288907 10.73754883 49.01416016 C 9.37865039 49.03069847 8.0198382 49.05796171 6.66137695 49.09619141 C 4.69665939 49.15115857 2.731031 49.16973139 0.765625 49.1875 C -0.99841675 49.217229 -0.99841675 49.217229 -2.7980957 49.24755859 C -7.10031954 48.46258913 -8.48667264 47.22819301 -10.99609375 43.6640625 C -11.68251819 40.77476248 -11.67468232 37.99834007 -11.625 35.0390625 C -11.62741196 34.2145459 -11.62982391 33.3900293 -11.63230896 32.54052734 C -11.63133221 30.80235978 -11.61797942 29.06416046 -11.59301758 27.32617188 C -11.55869765 24.67209754 -11.57236775 22.02135336 -11.59179688 19.3671875 C -11.58489806 17.67446506 -11.57522535 15.98175117 -11.5625 14.2890625 C -11.56745987 13.49935059 -11.57241974 12.70963867 -11.57752991 11.89599609 C -11.49841583 8.17781064 -11.1765791 6.00258971 -9.39794922 2.66650391 C -6.16739286 -0.02683044 -4.17717136 0.01890734 0 0 Z" stroke-linecap="round" />
</g>
		<g transform="matrix(1 0 0 1 -107.94 7.55)"  >
<path style="stroke: none; stroke-width: 1; stroke-dasharray: none; stroke-linecap: butt; stroke-dashoffset: 0; stroke-linejoin: miter; stroke-miterlimit: 4; fill: rgb(250,250,250); fill-rule: nonzero; opacity: 1;"  transform=" translate(-8.18, -24.71)" d="M 0 0 C 1.31484375 -0.00644531 2.6296875 -0.01289062 3.984375 -0.01953125 C 5.0043457 -0.0038208 5.0043457 -0.0038208 6.04492188 0.01220703 C 8.12034681 0.03900242 10.19036676 0.01243363 12.265625 -0.01953125 C 14.23789063 -0.00986328 14.23789063 -0.00986328 16.25 0 C 17.44882813 0.00563965 18.64765625 0.0112793 19.8828125 0.01708984 C 24.18255839 0.87509636 25.60401412 2.08943903 28.125 5.6640625 C 28.83118492 8.55005316 28.85040744 11.32783341 28.82421875 14.2890625 C 28.83137405 15.1135791 28.83852936 15.9380957 28.84590149 16.78759766 C 28.85366384 18.52570518 28.84869727 20.26391053 28.83178711 22.00195312 C 28.81255245 24.65682282 28.85196433 27.3064604 28.89648438 29.9609375 C 28.89677474 31.65364894 28.89363451 33.34636516 28.88671875 35.0390625 C 28.90200119 35.82877441 28.91728363 36.61848633 28.93302917 37.43212891 C 28.8410305 41.79750277 28.48941962 43.24830425 25.49951172 46.65942383 C 19.75049015 50.0746471 14.09347561 49.42544958 7.5625 49.3515625 C 6.24830078 49.37927734 4.93410156 49.40699219 3.58007812 49.43554688 C 2.31486328 49.43232422 1.04964844 49.42910156 -0.25390625 49.42578125 C -1.4044751 49.42537842 -2.55504395 49.42497559 -3.74047852 49.42456055 C -7.21205723 48.58228563 -8.83985075 47.3921535 -10.95024109 44.49864197 C -12.64434141 41.13780746 -12.58819284 37.86235993 -12.5390625 34.16015625 C -12.54384613 33.35925064 -12.54862976 32.55834503 -12.55355835 31.73316956 C -12.55694607 30.04808577 -12.54782267 28.36293525 -12.52685547 26.67797852 C -12.50003363 24.1047892 -12.52665474 21.5359467 -12.55859375 18.96289062 C -12.55529013 17.32030292 -12.54888489 15.67771791 -12.5390625 14.03515625 C -12.54918365 13.27045517 -12.55930481 12.50575409 -12.56973267 11.71788025 C -12.48591857 7.88355938 -11.99619341 5.83517638 -9.76318359 2.68237305 C -6.23907972 0.21967087 -4.2737313 0.02010492 0 0 Z" stroke-linecap="round" />
</g>
		<g transform="matrix(1 0 0 1 -13.49 7.57)"  >
<path style="stroke: none; stroke-width: 1; stroke-dasharray: none; stroke-linecap: butt; stroke-dashoffset: 0; stroke-linejoin: miter; stroke-miterlimit: 4; fill: rgb(250,250,250); fill-rule: nonzero; opacity: 1;"  transform=" translate(-8.48, -24.6)" d="M 0 0 C 0.67293091 -0.0038269 1.34586182 -0.00765381 2.03918457 -0.01159668 C 3.4579417 -0.0143113 4.87674927 -0.00698134 6.29541016 0.00976562 C 8.46240203 0.03118725 10.62607951 0.00995462 12.79296875 -0.015625 C 14.17448646 -0.01298164 15.5560021 -0.00785647 16.9375 0 C 18.18982422 0.00451172 19.44214844 0.00902344 20.73242188 0.01367188 C 23.96875 0.53125 23.96875 0.53125 26.37280273 2.01782227 C 28.6776529 5.64768803 28.56046863 9.10912651 28.53515625 13.27734375 C 28.54445412 14.54953514 28.54445412 14.54953514 28.55393982 15.84742737 C 28.56103375 17.63858901 28.55787135 19.42981664 28.54516602 21.22094727 C 28.53131214 23.95648072 28.56535859 26.68858422 28.60351562 29.42382812 C 28.60446699 31.1666675 28.60260704 32.90951115 28.59765625 34.65234375 C 28.61091446 35.4670665 28.62417267 36.28178925 28.63783264 37.12120056 C 28.57054372 41.24193727 28.28228271 43.08627653 25.84545898 46.54467773 C 22.3865244 48.93331821 20.48982129 49.17494951 16.3125 49.1953125 C 14.40791016 49.20498047 14.40791016 49.20498047 12.46484375 49.21484375 C 11.14613281 49.19550781 9.82742187 49.17617187 8.46875 49.15625 C 6.49068359 49.18525391 6.49068359 49.18525391 4.47265625 49.21484375 C 3.20292969 49.20839844 1.93320313 49.20195313 0.625 49.1953125 C -0.53193359 49.18967285 -1.68886719 49.1840332 -2.88085938 49.17822266 C -7.12485782 48.30666377 -8.540633 47.06599596 -11.03125 43.53125 C -11.72157134 40.55872903 -11.70964714 37.69358028 -11.66015625 34.65234375 C -11.66256821 33.80325943 -11.66498016 32.95417511 -11.66746521 32.07936096 C -11.6664884 30.28992019 -11.65313435 28.50044859 -11.62817383 26.71118164 C -11.59381249 23.9737285 -11.60753444 21.23949597 -11.62695312 18.50195312 C -11.62005568 16.76040295 -11.61038421 15.01886108 -11.59765625 13.27734375 C -11.60261612 12.46059677 -11.60757599 11.64384979 -11.61268616 10.80235291 C -11.54101878 7.3432 -11.30835197 4.96765274 -9.43530273 2.01782227 C -6.16966326 -0.00152157 -3.82894912 0.01379446 0 0 Z" stroke-linecap="round" />
</g>
		<g transform="matrix(1 0 0 1 -60.7 7.32)"  >
<path style="stroke: none; stroke-width: 1; stroke-dasharray: none; stroke-linecap: butt; stroke-dashoffset: 0; stroke-linejoin: miter; stroke-miterlimit: 4; fill: rgb(247,247,247); fill-rule: nonzero; opacity: 1;"  transform=" translate(-20.3, -23.82)" d="M 0 0 C 6.33333333 0 12.66666667 0 19 0 C 20.74216797 -0.06960937 20.74216797 -0.06960937 22.51953125 -0.140625 C 23.95049988 -0.17789674 25.38149079 -0.21432034 26.8125 -0.25 C 27.88081055 -0.30027344 27.88081055 -0.30027344 28.97070312 -0.3515625 C 32.33020165 -0.41371788 34.71457627 -0.14705047 37.71435547 1.3984375 C 41.18050033 5.34366711 40.62752313 8.93401629 40.48828125 14.015625 C 40.48120651 14.98659119 40.47413177 15.95755737 40.46684265 16.95794678 C 40.43887633 20.05608494 40.37613268 23.15240908 40.3125 26.25 C 40.28742007 28.35153638 40.26460637 30.45310112 40.24414062 32.5546875 C 40.18904207 37.70382287 40.10275293 42.851604 40 48 C 34.72 48 29.44 48 24 48 C 24 36.12 24 24.24 24 12 C 21.69 12 19.38 12 17 12 C 17 23.88 17 35.76 17 48 C 11.39 48 5.78 48 0 48 C 0 32.16 0 16.32 0 0 Z" stroke-linecap="round" />
</g>
		<g transform="matrix(1 0 0 1 162.67 -0.55)"  >
<path style="stroke: none; stroke-width: 1; stroke-dasharray: none; stroke-linecap: butt; stroke-dashoffset: 0; stroke-linejoin: miter; stroke-miterlimit: 4; fill: rgb(244,244,244); fill-rule: nonzero; opacity: 1;"  transform=" translate(-20.6, -31.05)" d="M 0 0 C 1.23556641 0.01740234 1.23556641 0.01740234 2.49609375 0.03515625 C 3.32238281 0.04417969 4.14867187 0.05320313 5 0.0625 C 5.63808594 0.07410156 6.27617187 0.08570313 6.93359375 0.09765625 C 6.51240275 5.3625438 5.41090622 10.03749513 3.87109375 15.09765625 C 1.13953936 23.64235243 1.13953936 23.64235243 2.99609375 32.09765625 C 6.1022665 33.70084218 8.51350354 33.52516753 11.93359375 33.09765625 C 14.16603988 30.89087042 14.87508825 29.5311002 15.296875 26.40625 C 15.28011719 25.45878906 15.26335937 24.51132813 15.24609375 23.53515625 C 15.24029297 22.11009766 15.24029297 22.11009766 15.234375 20.65625 C 15.1016047 17.8580972 15.1016047 17.8580972 12.93359375 15.09765625 C 10.37076633 14.36800259 10.37076633 14.36800259 7.93359375 14.09765625 C 8.24609375 12.22265625 8.24609375 12.22265625 8.93359375 10.09765625 C 12.67037805 7.60646672 14.67811194 7.89113365 19.12109375 7.97265625 C 20.39339844 7.99070312 21.66570312 8.00875 22.9765625 8.02734375 C 23.95238281 8.05054687 24.92820312 8.07375 25.93359375 8.09765625 C 25.92312012 8.70762451 25.91264648 9.31759277 25.90185547 9.94604492 C 25.86012754 12.72570632 25.83421453 15.50530164 25.80859375 18.28515625 C 25.79183594 19.24486328 25.77507812 20.20457031 25.7578125 21.19335938 C 25.75136719 22.12470703 25.74492187 23.05605469 25.73828125 24.015625 C 25.72780762 24.86922607 25.71733398 25.72282715 25.70654297 26.60229492 C 25.96155181 29.4049244 26.77817953 31.54495044 27.93359375 34.09765625 C 31.30759953 34.51491303 31.30759953 34.51491303 34.93359375 34.09765625 C 38.08695162 30.25629303 38.26835594 27.14480864 38.12109375 22.28515625 C 38.09402344 21.12371094 38.06695312 19.96226563 38.0390625 18.765625 C 37.98685547 17.44498047 37.98685547 17.44498047 37.93359375 16.09765625 C 32.98359375 15.10765625 32.98359375 15.10765625 27.93359375 14.09765625 C 27.93359375 9.09765625 27.93359375 9.09765625 29.49609375 7.28515625 C 32.87205265 5.64045833 35.21172514 5.71263536 38.93359375 6.09765625 C 44.11413879 7.92608391 46.26355857 10.35092705 48.93359375 15.09765625 C 51.14402331 21.72894492 50.3337696 28.63855217 47.92578125 35.1171875 C 46.11235198 38.73690655 43.53662632 41.29613996 39.93359375 43.09765625 C 38.31193623 43.2191393 36.68475048 43.27309277 35.05859375 43.28515625 C 34.19492187 43.29933594 33.33125 43.31351563 32.44140625 43.328125 C 29.80946495 43.08624877 28.19378831 42.42749166 25.93359375 41.09765625 C 25.79544161 48.17411606 26.21141373 55.05640109 26.93359375 62.09765625 C 22.64359375 62.09765625 18.35359375 62.09765625 13.93359375 62.09765625 C 14.07796875 60.69515625 14.22234375 59.29265625 14.37109375 57.84765625 C 14.96387401 51.93679019 15.45543012 46.01874629 15.93359375 40.09765625 C 15.38445312 40.41992188 14.8353125 40.7421875 14.26953125 41.07421875 C 9.99714525 42.9460668 5.50158365 42.64051882 0.93359375 42.09765625 C -3.14358873 40.05906501 -5.59610623 37.8798987 -8.06640625 34.09765625 C -10.23090458 26.48914279 -8.31473019 19.41960506 -6.19140625 12.03515625 C -5.90910156 10.99166016 -5.62679688 9.94816406 -5.3359375 8.87304688 C -2.93470089 0.13869097 -2.93470089 0.13869097 0 0 Z" stroke-linecap="round" />
</g>
		<g transform="matrix(1 0 0 1 118.17 -0.16)"  >
<path style="stroke: none; stroke-width: 1; stroke-dasharray: none; stroke-linecap: butt; stroke-dashoffset: 0; stroke-linejoin: miter; stroke-miterlimit: 4; fill: rgb(241,241,241); fill-rule: nonzero; opacity: 1;"  transform=" translate(-10.17, -32.34)" d="M 0 0 C 5.61 0 11.22 0 17 0 C 17 16.83 17 33.66 17 51 C 18.32 51 19.64 51 21 51 C 21 55.29 21 59.58 21 64 C 18.43493576 64.16276553 15.88024578 64.28113984 13.3125 64.375 C 12.59126953 64.42527344 11.87003906 64.47554688 11.12695312 64.52734375 C 10.42119141 64.54667969 9.71542969 64.56601563 8.98828125 64.5859375 C 8.34415283 64.6173584 7.70002441 64.6487793 7.03637695 64.68115234 C 4.35805738 63.78527516 2.71721582 62.36023612 1.00617981 60.13388062 C -1.24311805 55.36362678 -0.59584451 49.88544335 -0.48828125 44.7265625 C -0.48120651 43.44768158 -0.47413177 42.16880066 -0.46684265 40.85116577 C -0.4436463 37.46718587 -0.39880807 34.08492076 -0.34332275 30.70141602 C -0.29197788 27.24250024 -0.26929641 23.78340658 -0.24414062 20.32421875 C -0.18907629 13.54894752 -0.10280046 6.7747083 0 0 Z" stroke-linecap="round" />
</g>
		<g transform="matrix(1 0 0 1 150.57 -13.72)"  >
<path style="stroke: none; stroke-width: 1; stroke-dasharray: none; stroke-linecap: butt; stroke-dashoffset: 0; stroke-linejoin: miter; stroke-miterlimit: 4; fill: rgb(10,54,14); fill-rule: nonzero; opacity: 1;"  transform=" translate(-0.57, -16.78)" d="M 0 0 C 0.66 0.33 1.32 0.66 2 1 C 1.34 4.96 0.68 8.92 0 13 C 1.65 13 3.3 13 5 13 C 7.28831081 15.12807898 7.92393854 16.54020504 8.43359375 19.62109375 C 8.43970187 24.02504916 8.39927771 27.18547347 6.4375 31.1875 C 4 33 4 33 0.5 33.5625 C -3 33 -3 33 -5.4375 31.5 C -8.00574891 27.39080174 -7.4562839 23.07233136 -6.44750977 18.49072266 C -5.70834232 15.82732983 -4.90301519 13.19560137 -4.0625 10.5625 C -3.78470703 9.65306641 -3.50691406 8.74363281 -3.22070312 7.80664062 C -1.16100176 1.16100176 -1.16100176 1.16100176 0 0 Z" stroke-linecap="round" />
</g>
		<g transform="matrix(1 0 0 1 81 7.5)"  >
<path style="stroke: none; stroke-width: 1; stroke-dasharray: none; stroke-linecap: butt; stroke-dashoffset: 0; stroke-linejoin: miter; stroke-miterlimit: 4; fill: rgb(28,51,30); fill-rule: nonzero; opacity: 1;"  transform=" translate(-4, -12)" d="M 0 0 C 2.64 0 5.28 0 8 0 C 8 7.92 8 15.84 8 24 C 5.36 24 2.72 24 0 24 C 0 16.08 0 8.16 0 0 Z" stroke-linecap="round" />
</g>
		<g transform="matrix(1 0 0 1 -108 7.5)"  >
<path style="stroke: none; stroke-width: 1; stroke-dasharray: none; stroke-linecap: butt; stroke-dashoffset: 0; stroke-linejoin: miter; stroke-miterlimit: 4; fill: rgb(45,73,47); fill-rule: nonzero; opacity: 1;"  transform=" translate(-4, -12)" d="M 0 0 C 2.64 0 5.28 0 8 0 C 8 7.92 8 15.84 8 24 C 5.36 24 2.72 24 0 24 C 0 16.08 0 8.16 0 0 Z" stroke-linecap="round" />
</g>
		<g transform="matrix(1 0 0 1 -133.33 -1)"  >
<path style="stroke: none; stroke-width: 1; stroke-dasharray: none; stroke-linecap: butt; stroke-dashoffset: 0; stroke-linejoin: miter; stroke-miterlimit: 4; fill: rgb(0,0,0); fill-rule: nonzero; opacity: 1;"  transform=" translate(-1.67, -31.5)" d="M 0 0 C 1.485 0.99 1.485 0.99 3 2 C 3.36076355 4.51834106 3.36076355 4.51834106 3.34057617 7.73486328 C 3.34034958 8.93595734 3.34012299 10.13705139 3.33988953 11.37454224 C 3.32440567 12.67664642 3.30892181 13.97875061 3.29296875 15.3203125 C 3.28737416 16.66266405 3.28310341 18.00502173 3.28010559 19.34738159 C 3.26864585 22.88210941 3.23916959 26.41646798 3.20599365 29.9510498 C 3.17531671 33.55715947 3.16160538 37.16332874 3.14648438 40.76953125 C 3.11430052 47.84650532 3.06309094 54.92322857 3 62 C 1.515 62.495 1.515 62.495 0 63 C 0 42.21 0 21.42 0 0 Z" stroke-linecap="round" />
</g>
		<g transform="matrix(1 0 0 1 -13.5 7)"  >
<path style="stroke: none; stroke-width: 1; stroke-dasharray: none; stroke-linecap: butt; stroke-dashoffset: 0; stroke-linejoin: miter; stroke-miterlimit: 4; fill: rgb(6,50,8); fill-rule: nonzero; opacity: 1;"  transform=" translate(-3.5, -11.5)" d="M 0 0 C 2.31 0 4.62 0 7 0 C 7 7.59 7 15.18 7 23 C 4.69 23 2.38 23 0 23 C 0 15.41 0 7.82 0 0 Z" stroke-linecap="round" />
</g>
		<g transform="matrix(1 0 0 1 33.5 -10)"  >
<path style="stroke: none; stroke-width: 1; stroke-dasharray: none; stroke-linecap: butt; stroke-dashoffset: 0; stroke-linejoin: miter; stroke-miterlimit: 4; fill: rgb(5,51,9); fill-rule: nonzero; opacity: 1;"  transform=" translate(-3.5, -9.5)" d="M 0 0 C 2.31 0 4.62 0 7 0 C 7 6.27 7 12.54 7 19 C 4.69 19 2.38 19 0 19 C 0 12.73 0 6.46 0 0 Z" stroke-linecap="round" />
</g>
		<g transform="matrix(1 0 0 1 128 -0.5)"  >
<path style="stroke: none; stroke-width: 1; stroke-dasharray: none; stroke-linecap: butt; stroke-dashoffset: 0; stroke-linejoin: miter; stroke-miterlimit: 4; fill: rgb(0,0,0); fill-rule: nonzero; opacity: 1;"  transform=" translate(-3, -31)" d="M 0 0 C 0.66 0 1.32 0 2 0 C 2 15.84 2 31.68 2 48 C 3.32 48.33 4.64 48.66 6 49 C 6 53.29 6 57.58 6 62 C 5.34 62 4.68 62 4 62 C 4 58.04 4 54.08 4 50 C 2.68 50 1.36 50 0 50 C 0 33.5 0 17 0 0 Z" stroke-linecap="round" />
</g>
		<g transform="matrix(1 0 0 1 100.68 6.5)"  >
<path style="stroke: none; stroke-width: 1; stroke-dasharray: none; stroke-linecap: butt; stroke-dashoffset: 0; stroke-linejoin: miter; stroke-miterlimit: 4; fill: rgb(1,6,1); fill-rule: nonzero; opacity: 1;"  transform=" translate(-3.68, -23)" d="M 0 0 C 3.41819568 1.4144258 5.15958413 2.77367999 7 6 C 7.28074831 8.78649604 7.39726124 11.34209602 7.36328125 14.125 C 7.36377975 14.90891113 7.36427826 15.69282227 7.36479187 16.50048828 C 7.36245578 18.15464824 7.35275461 19.80881204 7.33618164 21.46289062 C 7.31258205 23.99120962 7.31562488 26.51847376 7.32226562 29.046875 C 7.31668862 30.65625627 7.3095786 32.26563311 7.30078125 33.875 C 7.30169266 34.6292627 7.30260406 35.38352539 7.30354309 36.16064453 C 7.25291452 39.91865937 7.09757617 42.81005585 5 46 C 4.34 45.67 3.68 45.34 3 45 C 3.01571045 43.81446533 3.0314209 42.62893066 3.04760742 41.4074707 C 3.10199565 36.999988 3.13638246 32.59253485 3.16479492 28.18481445 C 3.17986128 26.27883919 3.20031824 24.37289848 3.22631836 22.46704102 C 3.26279642 19.72403424 3.27974792 16.98148672 3.29296875 14.23828125 C 3.30845261 13.38913651 3.32393646 12.53999176 3.33988953 11.66511536 C 3.34123399 6.91573739 3.01344355 3.91017762 0 0 Z" stroke-linecap="round" />
</g>
		<g transform="matrix(1 0 0 1 -87.9 5.5)"  >
<path style="stroke: none; stroke-width: 1; stroke-dasharray: none; stroke-linecap: butt; stroke-dashoffset: 0; stroke-linejoin: miter; stroke-miterlimit: 4; fill: rgb(4,12,5); fill-rule: nonzero; opacity: 1;"  transform=" translate(-3.1, -21)" d="M 0 0 C 3.16115776 1.36983503 3.9927092 1.9890638 6 5 C 6.17177775 7.75786415 6.23216238 10.41215524 6.1953125 13.16796875 C 6.1924826 13.96278152 6.18965271 14.7575943 6.18673706 15.57649231 C 6.17554705 18.11364838 6.15044491 20.65045072 6.125 23.1875 C 6.11496866 24.90819802 6.10584308 26.62890159 6.09765625 28.34960938 C 6.07561161 32.56654243 6.04109006 36.78321125 6 41 C 4.515 41.495 4.515 41.495 3 42 C 2.98018066 40.86981445 2.96036133 39.73962891 2.93994141 38.57519531 C 2.8638112 34.37803036 2.77510521 30.18120874 2.68261719 25.984375 C 2.64435809 24.16868879 2.60949983 22.35292759 2.578125 20.53710938 C 2.5324077 17.92550877 2.47442464 15.31442312 2.4140625 12.703125 C 2.39673569 11.48728729 2.39673569 11.48728729 2.37905884 10.24688721 C 2.27821844 6.38735276 2.18888974 3.27181414 0 0 Z" stroke-linecap="round" />
</g>
		<g transform="matrix(1 0 0 1 7.14 6.5)"  >
<path style="stroke: none; stroke-width: 1; stroke-dasharray: none; stroke-linecap: butt; stroke-dashoffset: 0; stroke-linejoin: miter; stroke-miterlimit: 4; fill: rgb(26,27,26); fill-rule: nonzero; opacity: 1;"  transform=" translate(-2.14, -21)" d="M 0 0 C 0.66 0 1.32 0 2 0 C 4.54078897 3.81118345 4.28832297 6.90083173 4.265625 11.31640625 C 4.26753845 12.12867172 4.2694519 12.94093719 4.27142334 13.77781677 C 4.27278347 15.49340119 4.26909904 17.20899595 4.26074219 18.92456055 C 4.25002622 21.55606069 4.2606502 24.18688029 4.2734375 26.81835938 C 4.27211615 28.48437651 4.26955425 30.15039322 4.265625 31.81640625 C 4.26967346 32.60600235 4.27372192 33.39559845 4.27789307 34.2091217 C 4.22992975 39.77007025 4.22992975 39.77007025 2 42 C -0.15456969 39.84543031 0.73973374 34.9288373 0.68359375 31.93359375 C 0.66281265 31.02497086 0.64203156 30.11634796 0.62062073 29.18019104 C 0.55502328 26.26604054 0.4961932 23.35179696 0.4375 20.4375 C 0.39432446 18.46678709 0.35071049 16.49608374 0.30664062 14.52539062 C 0.19933157 9.68369012 0.09809325 4.84189563 0 0 Z" stroke-linecap="round" />
</g>
		<g transform="matrix(1 0 0 1 148.85 -13.87)"  >
<path style="stroke: none; stroke-width: 1; stroke-dasharray: none; stroke-linecap: butt; stroke-dashoffset: 0; stroke-linejoin: miter; stroke-miterlimit: 4; fill: rgb(21,26,21); fill-rule: nonzero; opacity: 1;"  transform=" translate(1.14, -16.63)" d="M 0 0 C 0.66 0.33 1.32 0.66 2 1 C 1.7098066 2.33365476 1.41774108 3.66690215 1.125 5 C 0.94324219 5.82886719 0.76148438 6.65773438 0.57421875 7.51171875 C 0.08628172 9.62611254 -0.4799553 11.72219254 -1.0625 13.8125 C -2.42734517 19.11067848 -2.65533402 24.55790559 -3 30 C -0.36 30.33 2.28 30.66 5 31 C 4.67 31.66 4.34 32.32 4 33 C -2.22222222 33.47863248 -2.22222222 33.47863248 -5.4375 31.5 C -8.00574891 27.39080174 -7.4562839 23.07233136 -6.44750977 18.49072266 C -5.70834232 15.82732983 -4.90301519 13.19560137 -4.0625 10.5625 C -3.78470703 9.65306641 -3.50691406 8.74363281 -3.22070312 7.80664062 C -1.16100176 1.16100176 -1.16100176 1.16100176 0 0 Z" stroke-linecap="round" />
</g>
		<g transform="matrix(1 0 0 1 -62.5 13.5)"  >
<path style="stroke: none; stroke-width: 1; stroke-dasharray: none; stroke-linecap: butt; stroke-dashoffset: 0; stroke-linejoin: miter; stroke-miterlimit: 4; fill: rgb(0,3,0); fill-rule: nonzero; opacity: 1;"  transform=" translate(-1.5, -17)" d="M 0 0 C 0.99 0 1.98 0 3 0 C 3 10.89 3 21.78 3 33 C 1.515 33.495 1.515 33.495 0 34 C 0 22.78 0 11.56 0 0 Z" stroke-linecap="round" />
</g>
		<g transform="matrix(1 0 0 1 -39.89 8)"  >
<path style="stroke: none; stroke-width: 1; stroke-dasharray: none; stroke-linecap: butt; stroke-dashoffset: 0; stroke-linejoin: miter; stroke-miterlimit: 4; fill: rgb(0,1,0); fill-rule: nonzero; opacity: 1;"  transform=" translate(-2.11, -22.5)" d="M 0 0 C 0.66 0 1.32 0 2 0 C 4.06037303 3.09055955 4.24799242 3.70926162 4.22705078 7.19604492 C 4.22689972 8.03668991 4.22674866 8.8773349 4.22659302 9.74345398 C 4.21627045 10.64666885 4.20594788 11.54988373 4.1953125 12.48046875 C 4.1924826 13.40845779 4.18965271 14.33644684 4.18673706 15.29255676 C 4.17553836 18.25766879 4.15043435 21.22247921 4.125 24.1875 C 4.1149698 26.19726126 4.10584402 28.20702726 4.09765625 30.21679688 C 4.07560004 35.14464753 4.04107229 40.07227262 4 45 C 3.34 45 2.68 45 2 45 C 1.97494385 43.81446533 1.9498877 42.62893066 1.92407227 41.4074707 C 1.82974468 36.99981282 1.72958623 32.59230322 1.62768555 28.18481445 C 1.58443247 26.27892532 1.54275075 24.37299983 1.50268555 22.46704102 C 1.44474929 19.72400979 1.3811226 16.98115987 1.31640625 14.23828125 C 1.29969376 13.38913651 1.28298126 12.53999176 1.26576233 11.66511536 C 1.1660381 7.66292858 0.97583449 3.90681068 0 0 Z" stroke-linecap="round" />
</g>
		<g transform="matrix(1 0 0 1 52.25 -11)"  >
<path style="stroke: none; stroke-width: 1; stroke-dasharray: none; stroke-linecap: butt; stroke-dashoffset: 0; stroke-linejoin: miter; stroke-miterlimit: 4; fill: rgb(2,4,2); fill-rule: nonzero; opacity: 1;"  transform=" translate(-4.25, -20.5)" d="M 0 0 C 3.94851615 1.28059983 5.89718462 2.39571325 8 6 C 8.55006199 10.11266896 8.47293849 14.21562144 8.44604492 18.36230469 C 8.4375578 20.36138526 8.46767192 22.36050719 8.49804688 24.359375 C 8.49740234 25.63039063 8.49675781 26.90140625 8.49609375 28.2109375 C 8.49794678 29.36899902 8.4997998 30.52706055 8.50170898 31.72021484 C 7.90011456 35.65297371 6.3935345 37.86896603 4 41 C 3.505 39.515 3.505 39.515 3 38 C 3.30244629 37.39913574 3.60489258 36.79827148 3.91650391 36.17919922 C 6.16706334 31.6527248 5.36958126 26.08315025 5.375 21.125 C 5.39949219 19.95324219 5.42398437 18.78148437 5.44921875 17.57421875 C 5.47141573 11.05570538 5.38558174 6.95688358 1 2 C 0.67 1.34 0.34 0.68 0 0 Z" stroke-linecap="round" />
</g>
		<g transform="matrix(1 0 0 1 212.5 84.5)"  >
<path style="stroke: none; stroke-width: 1; stroke-dasharray: none; stroke-linecap: butt; stroke-dashoffset: 0; stroke-linejoin: miter; stroke-miterlimit: 4; fill: rgb(0,0,0); fill-rule: nonzero; opacity: 1;"  transform=" translate(6.5, -7)" d="M 0 0 C 0.33 0 0.66 0 1 0 C 1 4.62 1 9.24 1 14 C -3.95 14 -8.9 14 -14 14 C -11 12 -11 12 -8.125 10.375 C -4.68281873 7.75894224 -3.07287959 5.32018776 -0.98046875 1.609375 C -0.65691406 1.07828125 -0.33335937 0.5471875 0 0 Z" stroke-linecap="round" />
</g>
		<g transform="matrix(1 0 0 1 -213 85)"  >
<path style="stroke: none; stroke-width: 1; stroke-dasharray: none; stroke-linecap: butt; stroke-dashoffset: 0; stroke-linejoin: miter; stroke-miterlimit: 4; fill: rgb(0,0,0); fill-rule: nonzero; opacity: 1;"  transform=" translate(-7, -6.5)" d="M 0 0 C 4 5 4 5 4 7 C 4.53625 7.268125 5.0725 7.53625 5.625 7.8125 C 8.41666667 9.20833333 11.20833333 10.60416667 14 12 C 14 12.33 14 12.66 14 13 C 9.38 13 4.76 13 0 13 C 0 8.71 0 4.42 0 0 Z" stroke-linecap="round" />
</g>
		<g transform="matrix(1 0 0 1 -15.5 7.5)"  >
<path style="stroke: none; stroke-width: 1; stroke-dasharray: none; stroke-linecap: butt; stroke-dashoffset: 0; stroke-linejoin: miter; stroke-miterlimit: 4; fill: rgb(0,0,0); fill-rule: nonzero; opacity: 1;"  transform=" translate(-1.5, -11)" d="M 0 0 C 0.99 0 1.98 0 3 0 C 3 7.26 3 14.52 3 22 C 2.01 22 1.02 22 0 22 C 0 14.74 0 7.48 0 0 Z" stroke-linecap="round" />
</g>
		<g transform="matrix(1 0 0 1 -109.5 7.5)"  >
<path style="stroke: none; stroke-width: 1; stroke-dasharray: none; stroke-linecap: butt; stroke-dashoffset: 0; stroke-linejoin: miter; stroke-miterlimit: 4; fill: rgb(0,7,0); fill-rule: nonzero; opacity: 1;"  transform=" translate(-1.5, -11)" d="M 0 0 C 0.99 0 1.98 0 3 0 C 3 7.26 3 14.52 3 22 C 2.01 22 1.02 22 0 22 C 0 14.74 0 7.48 0 0 Z" stroke-linecap="round" />
</g>
		<g transform="matrix(1 0 0 1 214 -85)"  >
<path style="stroke: none; stroke-width: 1; stroke-dasharray: none; stroke-linecap: butt; stroke-dashoffset: 0; stroke-linejoin: miter; stroke-miterlimit: 4; fill: rgb(0,0,0); fill-rule: nonzero; opacity: 1;"  transform=" translate(-6, -6.5)" d="M 0 0 C 3.96 0 7.92 0 12 0 C 12 4.29 12 8.58 12 13 C 9.5625 9.75 9.5625 9.75 7.125 6.5 C 4.95481697 3.94684349 2.67482431 2.00611823 0 0 Z" stroke-linecap="round" />
</g>
		<g transform="matrix(1 0 0 1 -172.33 19)"  >
<path style="stroke: none; stroke-width: 1; stroke-dasharray: none; stroke-linecap: butt; stroke-dashoffset: 0; stroke-linejoin: miter; stroke-miterlimit: 4; fill: rgb(2,6,2); fill-rule: nonzero; opacity: 1;"  transform=" translate(-1.67, -11.5)" d="M 0 0 C 3 3 3 3 3.34057617 5.0847168 C 3.32486572 5.86500244 3.30915527 6.64528809 3.29296875 7.44921875 C 3.28330078 8.29677734 3.27363281 9.14433594 3.26367188 10.01757812 C 3.23853516 10.89865234 3.21339844 11.77972656 3.1875 12.6875 C 3.16719727 14.02651367 3.16719727 14.02651367 3.14648438 15.39257812 C 3.11114079 17.59566166 3.06180493 19.79752582 3 22 C 2.01 22.33 1.02 22.66 0 23 C 0 15.41 0 7.82 0 0 Z" stroke-linecap="round" />
</g>
		<g transform="matrix(1 0 0 1 -169 -19.5)"  >
<path style="stroke: none; stroke-width: 1; stroke-dasharray: none; stroke-linecap: butt; stroke-dashoffset: 0; stroke-linejoin: miter; stroke-miterlimit: 4; fill: rgb(9,12,9); fill-rule: nonzero; opacity: 1;"  transform=" translate(-7, -13)" d="M 0 0 C 3 1 3 1 4.3503418 3.08544922 C 4.79547119 3.98279785 5.24060059 4.88014648 5.69921875 5.8046875 C 6.18583984 6.78050781 6.67246094 7.75632812 7.17382812 8.76171875 C 7.9230957 10.30279297 7.9230957 10.30279297 8.6875 11.875 C 9.19861328 12.89464844 9.70972656 13.91429688 10.23632812 14.96484375 C 14 22.59268608 14 22.59268608 14 26 C 13.34 26 12.68 26 12 26 C 9.99354751 22.04490505 7.99593864 18.08540979 6 14.125 C 5.42765625 12.99707031 4.8553125 11.86914062 4.265625 10.70703125 C 3.72421875 9.63066406 3.1828125 8.55429688 2.625 7.4453125 C 2.12226562 6.45031738 1.61953125 5.45532227 1.1015625 4.43017578 C 0 2 0 2 0 0 Z" stroke-linecap="round" />
</g>
		<g transform="matrix(1 0 0 1 -214 -85.5)"  >
<path style="stroke: none; stroke-width: 1; stroke-dasharray: none; stroke-linecap: butt; stroke-dashoffset: 0; stroke-linejoin: miter; stroke-miterlimit: 4; fill: rgb(0,0,0); fill-rule: nonzero; opacity: 1;"  transform=" translate(-6, -6)" d="M 0 0 C 3.96 0 7.92 0 12 0 C 11.278125 0.53625 10.55625 1.0725 9.8125 1.625 C 6.74593392 4.21454469 4.51135446 6.87777554 2 10 C 1.34 10.66 0.68 11.32 0 12 C 0 8.04 0 4.08 0 0 Z" stroke-linecap="round" />
</g>
		<g transform="matrix(1 0 0 1 31.5 -10)"  >
<path style="stroke: none; stroke-width: 1; stroke-dasharray: none; stroke-linecap: butt; stroke-dashoffset: 0; stroke-linejoin: miter; stroke-miterlimit: 4; fill: rgb(0,0,0); fill-rule: nonzero; opacity: 1;"  transform=" translate(-1.5, -9.5)" d="M 0 0 C 0.99 0 1.98 0 3 0 C 3 6.27 3 12.54 3 19 C 2.01 19 1.02 19 0 19 C 0 12.73 0 6.46 0 0 Z" stroke-linecap="round" />
</g>
		<g transform="matrix(1 0 0 1 31.5 21)"  >
<path style="stroke: none; stroke-width: 1; stroke-dasharray: none; stroke-linecap: butt; stroke-dashoffset: 0; stroke-linejoin: miter; stroke-miterlimit: 4; fill: rgb(0,0,0); fill-rule: nonzero; opacity: 1;"  transform=" translate(-1.5, -9.5)" d="M 0 0 C 0.99 0 1.98 0 3 0 C 3 5.94 3 11.88 3 18 C 2.01 18.33 1.02 18.66 0 19 C 0 12.73 0 6.46 0 0 Z" stroke-linecap="round" />
</g>
		<g transform="matrix(1 0 0 1 192.16 -7)"  >
<path style="stroke: none; stroke-width: 1; stroke-dasharray: none; stroke-linecap: butt; stroke-dashoffset: 0; stroke-linejoin: miter; stroke-miterlimit: 4; fill: rgb(5,8,6); fill-rule: nonzero; opacity: 1;"  transform=" translate(-2.16, -12.5)" d="M 0 0 C 3.22092019 2.94084017 3.94126084 5.00708227 4.203125 9.43359375 C 4.2243295 10.76815218 4.2397627 12.10281238 4.25 13.4375 C 4.28867187 15.41556641 4.28867187 15.41556641 4.328125 17.43359375 C 3.99278944 21.07837191 3.50424009 22.42326875 1 25 C 0.23863916 22.71591749 -0.05265767 21.25576584 0.4375 18.875 C 1.65491487 12.65265732 1.30221739 6.18553261 0 0 Z" stroke-linecap="round" />
</g>
		<g transform="matrix(1 0 0 1 168.78 -7)"  >
<path style="stroke: none; stroke-width: 1; stroke-dasharray: none; stroke-linecap: butt; stroke-dashoffset: 0; stroke-linejoin: miter; stroke-miterlimit: 4; fill: rgb(5,14,6); fill-rule: nonzero; opacity: 1;"  transform=" translate(-0.79, -8.5)" d="M 0 0 C 0.66 0 1.32 0 2 0 C 2.33 5.61 2.66 11.22 3 17 C -1 13 -1 13 -1.42578125 10.01953125 C -1.38839844 8.96121094 -1.35101563 7.90289062 -1.3125 6.8125 C -1.28800781 5.74644531 -1.26351563 4.68039063 -1.23828125 3.58203125 C -1 1 -1 1 0 0 Z" stroke-linecap="round" />
</g>
		<g transform="matrix(1 0 0 1 148.96 -21.5)"  >
<path style="stroke: none; stroke-width: 1; stroke-dasharray: none; stroke-linecap: butt; stroke-dashoffset: 0; stroke-linejoin: miter; stroke-miterlimit: 4; fill: rgb(4,6,4); fill-rule: nonzero; opacity: 1;"  transform=" translate(1.04, -9)" d="M 0 0 C 0.66 0.33 1.32 0.66 2 1 C 0.76123355 6.69305433 -0.56276003 12.35370013 -2 18 C -4 16 -4 16 -4.08203125 14.08203125 C -3.46243347 8.86483832 -2.31150885 4.72351809 0 0 Z" stroke-linecap="round" />
</g>
</g>
</g>
<g transform="matrix(1 0 0 1 48 48)"  >
<line style="stroke: rgb(0,0,0); stroke-width: 2; stroke-dasharray: none; stroke-linecap: butt; stroke-dashoffset: 0; stroke-linejoin: miter; stroke-miterlimit: 4; fill: rgb(0,0,0); fill-rule: nonzero; opacity: 1;" vector-effect="non-scaling-stroke"  x1="-1" y1="0" x2="1" y2="0" />
</g>
</svg>